          <svg
           
            viewBox="0 0 1953 86"
            fill="none"
            xmlns="http://www.w3.org/2000/svg"
          >
            <line
              x1="1036"
              y1="42.5"
              x2="1929"
              y2="42.5"
              stroke="url(#paint0_linear_49_55)"
            />
            <line
              x1="1060"
              y1="54.5"
              x2="1953"
              y2="54.5"
              stroke="url(#paint1_linear_49_55)"
            />
            <path
              d="M998.98 29.5005C1000.74 29.5005 1001.98 29.9916 1002.79 30.8931L1002.79 30.894C1003.81 32.0183 1004.32 33.3492 1004.32 34.9116C1004.32 37.058 1003.48 38.8196 1001.77 40.23C1001.58 40.3867 1001.38 40.5797 1001.29 40.8149C1001.24 40.9406 1001.21 41.0858 1001.23 41.2407C1001.25 41.3965 1001.32 41.5299 1001.41 41.6382L1001.71 42.0151L1002.09 41.7251C1003.3 40.8219 1004.54 40.3862 1005.82 40.3862C1007.34 40.3863 1008.53 40.8647 1009.43 41.7935H1009.43C1010.48 42.898 1011.01 44.3211 1011.01 46.105C1011.01 47.6396 1010.5 48.9585 1009.48 50.0845L1009.48 50.0854C1008.57 51.091 1007.37 51.6039 1005.82 51.604C1004.3 51.604 1002.98 51.0092 1001.85 49.7798C1001.48 49.3282 1001.1 48.734 1000.72 47.9897L1000.66 47.2358H1000.66C1000.66 47.1517 1000.65 47.0398 1000.61 46.9341C1000.59 46.8719 1000.53 46.7548 1000.41 46.6655C1000.27 46.5591 1000.1 46.5446 999.956 46.5815C999.84 46.6125 999.758 46.6744 999.715 46.7114C999.667 46.7527 999.627 46.7978 999.597 46.8364C999.535 46.9138 999.476 47.0083 999.419 47.1079L999.293 47.3296L999.398 47.563C999.51 47.8069 999.623 48.0401 999.735 48.2642L999.964 51.2749L999.966 51.2876C1000.07 52.3004 1000.35 53.9636 1000.8 56.2651H997.483C997.917 54.1448 998.143 52.4763 998.147 51.2749L998.37 48.3345C998.497 48.0751 998.617 47.807 998.729 47.5288L998.819 47.3022L998.696 47.0903C998.64 46.9939 998.583 46.9052 998.526 46.8315C998.485 46.7771 998.392 46.6605 998.253 46.5923C998.172 46.5525 998.021 46.5036 997.845 46.561C997.667 46.6191 997.573 46.7493 997.53 46.8325C997.494 46.9027 997.476 46.9758 997.467 47.0396L997.458 47.1538L997.389 48.0601C997.118 48.5909 996.818 49.0711 996.483 49.4995L996.258 49.7749L996.253 49.7808C995.241 50.9987 993.937 51.604 992.297 51.604C990.75 51.604 989.544 51.0875 988.627 50.0718C987.719 48.9591 987.263 47.6445 987.263 46.105C987.263 44.3097 987.75 42.8823 988.69 41.7808C989.587 40.8607 990.772 40.3862 992.297 40.3862C993.698 40.3863 994.926 40.8247 996 41.7056L996.296 41.9478L996.607 41.7251C996.821 41.5722 997.044 41.2999 996.978 40.9214C996.924 40.6145 996.695 40.3922 996.502 40.2437L996.489 40.2339L996.475 40.2241C994.7 39.0406 993.796 37.2471 993.796 34.7544C993.796 33.3832 994.212 32.2161 995.043 31.23L995.215 31.0356C996.229 30.0118 997.473 29.5005 998.98 29.5005Z"
              stroke="white"
            />
            <path
              d="M986.109 14.3633L975.158 27.6865L964.207 14.3555L975.151 0.795898L986.109 14.3633Z"
              stroke="white"
            />
            <path
              d="M986.109 71.1462L975.158 84.4695L964.207 71.1384L975.151 57.5789L986.109 71.1462Z"
              stroke="white"
            />
            <path
              d="M957.338 35.8689L957.341 35.8728C959.276 38.3327 960.716 40.4632 961.669 42.2664C962.627 44.0788 963.069 45.5151 963.069 46.6003C963.069 48.2726 962.597 49.5262 961.702 50.4246C960.889 51.2372 959.935 51.6345 958.814 51.6345C957.261 51.6345 956.031 51.1967 955.079 50.3542C954.652 49.9257 954.324 49.545 954.089 49.2117L953.965 48.2917H953.961C953.944 48.1555 953.878 47.993 953.707 47.8904C953.551 47.7969 953.395 47.8085 953.331 47.8162C953.191 47.833 953.048 47.8936 952.938 47.946L952.6 48.1091L952.662 48.4802C952.722 48.8354 952.891 49.2007 953.129 49.573L953.432 51.8005C953.531 53.3102 953.786 54.8106 954.197 56.3015H950.318C950.673 54.5716 950.947 53.0728 951.137 51.8064L951.142 51.7761L951.143 51.7449L951.192 49.6316C951.418 49.298 951.639 48.9407 951.852 48.5593L952.007 48.28L951.819 48.0212C951.672 47.8193 951.433 47.6083 951.092 47.6082C950.772 47.6082 950.525 47.797 950.359 47.9734L950.229 48.1121L950.224 48.3035L950.199 49.3064C949.894 49.7325 949.584 50.1056 949.265 50.4246C948.485 51.204 947.295 51.6345 945.604 51.6345C944.466 51.6345 943.577 51.238 942.891 50.45L942.88 50.4363L942.867 50.4246L942.705 50.2527C941.917 49.3725 941.5 48.1729 941.5 46.6003C941.5 45.7298 941.939 44.4062 942.918 42.5847C943.887 40.783 945.347 38.5584 947.31 35.908L947.311 35.9089L952.285 29.3025L957.338 35.8689Z"
              stroke="white"
            />
            <path d="M0 54H893" stroke="url(#paint2_linear_49_55)" />
            <line
              x1="24"
              y1="41.5"
              x2="917"
              y2="41.5"
              stroke="url(#paint3_linear_49_55)"
            />
            <defs>
              <linearGradient
                id="paint0_linear_49_55"
                x1="1036"
                y1="43.5"
                x2="1929"
                y2="43.5"
                gradientUnits="userSpaceOnUse"
              >
                <stop stop-color="white" />
                <stop offset="1" stop-color="white" stop-opacity="0" />
              </linearGradient>
              <linearGradient
                id="paint1_linear_49_55"
                x1="1060"
                y1="55.5"
                x2="1953"
                y2="55.5"
                gradientUnits="userSpaceOnUse"
              >
                <stop stop-color="white" />
                <stop offset="1" stop-color="white" stop-opacity="0" />
              </linearGradient>
              <linearGradient
                id="paint2_linear_49_55"
                x1="0"
                y1="54.5"
                x2="893"
                y2="54.5"
                gradientUnits="userSpaceOnUse"
              >
                <stop stop-color="white" stop-opacity="0" />
                <stop offset="1" stop-color="white" />
              </linearGradient>
              <linearGradient
                id="paint3_linear_49_55"
                x1="24"
                y1="42.5"
                x2="917"
                y2="42.5"
                gradientUnits="userSpaceOnUse"
              >
                <stop stop-color="white" stop-opacity="0" />
                <stop offset="1" stop-color="white" />
              </linearGradient>
            </defs>
          </svg>